<?xml version="1.0" encoding="utf-8"?>
<!-- Generator: Adobe Illustrator 18.1.1, SVG Export Plug-In . SVG Version: 6.00 Build 0)  -->
<svg width="28px" height="28" version="1.1" id="Layer_1" xmlns="http://www.w3.org/2000/svg" xmlns:xlink="http://www.w3.org/1999/xlink" x="0px" y="0px"
	 viewBox="0 0 28 28" enable-background="new 0 0 28 28" xml:space="preserve">
<polygon fill="#232323" points="8,22 6,22 8,18 0,18 0,12 8,12 6,8 8,8 15,15 "/>
<g>
	<path fill="#232323" d="M24,15.4l3,3v3.2l-5,5L17.4,22L24,15.4 M24,14l-8,8l6,6l6-6v-4L24,14L24,14z"/>
</g>
<g>
	<path fill="#232323" d="M24,1.4l3,3v3.2l-5,5L17.4,8L24,1.4 M24,0l-8,8l6,6l6-6V4L24,0L24,0z"/>
</g>
<polygon fill="#232323" points="18.8,22 24,16.8 26,18.8 26,21.2 22,25.2 "/>
<polygon fill="#232323" points="22,11.2 26,7.2 26,4.8 24,2.8 18.8,8 "/>
</svg>
