<?xml version="1.0" encoding="utf-8"?>
<!-- Generator: Adobe Illustrator 18.1.1, SVG Export Plug-In . SVG Version: 6.00 Build 0)  -->
<svg width="28px" height="28px" version="1.1" id="Layer_1" xmlns="http://www.w3.org/2000/svg" xmlns:xlink="http://www.w3.org/1999/xlink" x="0px" y="0px"
	 viewBox="0 0 28 28" enable-background="new 0 0 28 28" xml:space="preserve">
<path fill="#232323" d="M28,14c0,7.7-6.3,14-14,14C6.3,28,0,21.7,0,14S6.3,0,14,0C21.7,0,28,6.3,28,14z M24,14c0-5.5-4.5-10-10-10
	c-0.4,0-0.7,0.1-1.1,0.1l-1.8-1.8C10,2.6,9,3.1,8,3.6V6c-2.4,1.8-4,4.7-4,8c0,5.5,4.5,10,10,10c0.4,0,0.7-0.1,1.1-0.1l1.8,1.8
	c1.1-0.3,2.2-0.7,3.2-1.3V22C22.4,20.1,24,17.3,24,14z"/>
<polygon fill="none" stroke="#232323" stroke-miterlimit="10" points="10,4 10,16 18,24 18,12 "/>
<polygon fill="#232323" points="12,15 12,15.2 16,19.2 16,13 "/>
</svg>
