<?xml version="1.0" encoding="utf-8"?>
<!-- Generator: Adobe Illustrator 18.1.1, SVG Export Plug-In . SVG Version: 6.00 Build 0)  -->
<svg width="26px" height="26px" version="1.1" id="Layer_1" xmlns="http://www.w3.org/2000/svg" xmlns:xlink="http://www.w3.org/1999/xlink" x="0px" y="0px"
	 viewBox="0 0 26 26" enable-background="new 0 0 26 26" xml:space="preserve">
<polygon fill="#232323" points="14,8 26,8 26,4 12,4 12,8 "/>
<polygon fill="#232323" points="14,18 10,18 10,20 26,20 26,16 16,16 14,16 "/>
<rect x="16" y="22" fill="#232323" width="10" height="4"/>
<rect x="16" y="10" fill="#232323" width="10" height="4"/>
<rect x="6" y="16" fill="#232323" width="2" height="2"/>
<rect x="10" y="14" fill="#232323" width="2" height="2"/>
<rect x="12" y="12" fill="#232323" width="2" height="2"/>
<rect x="8" y="12" fill="#232323" width="2" height="2"/>
<rect x="4" y="18" fill="#232323" width="2" height="2"/>
<rect x="10" y="10" fill="#232323" width="2" height="2"/>
<rect x="4" y="14" fill="#232323" width="2" height="2"/>
<rect x="2" y="16" fill="#232323" width="2" height="2"/>
<path fill="#232323" d="M4,8v2h2V8l2-2h2V4H8L6,2V0H4v2L2,4H0v2h2L4,8z M4,4h2v2H4V4z"/>
</svg>
