<svg xmlns="http://www.w3.org/2000/svg" xmlns:xlink="http://www.w3.org/1999/xlink" preserveAspectRatio="xMidYMid" width="46" height="47" viewBox="0 0 46 47">
  <defs>
    <style>

      .cls-2 {
        fill: #232323;
      }
    </style>
  </defs>
  <path d="M44.035,9.780 C42.569,10.743 40.191,11.097 38.248,11.215 C38.252,11.145 38.258,11.076 38.258,11.005 C38.258,10.514 38.158,10.046 37.978,9.620 C38.446,9.370 38.973,9.065 39.515,8.709 C41.217,7.591 42.409,6.392 42.409,6.392 C42.409,6.392 40.841,7.008 39.139,8.127 C38.614,8.472 38.138,8.824 37.731,9.146 C37.430,8.658 37.017,8.249 36.526,7.957 C37.409,6.288 38.624,4.424 39.999,3.520 C42.813,1.671 42.966,3.565 44.081,5.293 C45.195,7.022 46.848,7.930 44.035,9.780 ZM34.752,7.465 C34.617,7.465 34.483,7.475 34.351,7.490 C34.271,7.074 34.171,6.625 34.047,6.159 C33.519,4.179 32.759,2.664 32.759,2.664 C32.759,2.664 32.854,4.360 33.382,6.340 C33.503,6.793 33.635,7.218 33.768,7.610 C33.165,7.788 32.629,8.127 32.208,8.577 C30.972,7.249 29.713,5.606 29.309,4.090 C28.436,0.817 30.268,1.255 32.240,0.719 C34.213,0.183 35.579,-1.124 36.452,2.149 C36.875,3.735 36.556,5.916 36.117,7.744 C35.697,7.564 35.236,7.465 34.752,7.465 ZM31.260,10.736 C30.855,10.687 30.417,10.646 29.956,10.622 C27.927,10.517 26.265,10.779 26.265,10.779 C26.265,10.779 27.892,11.212 29.921,11.316 C30.394,11.341 30.846,11.345 31.263,11.338 C31.333,12.088 31.637,12.770 32.098,13.311 C30.586,14.491 29.024,16.099 27.670,18.049 C26.979,19.039 26.332,20.124 25.760,21.243 C25.760,21.243 25.544,21.662 25.544,21.662 C25.544,21.662 25.335,22.105 25.335,22.105 C25.335,22.105 25.125,22.549 25.125,22.549 C25.125,22.549 24.928,22.980 24.928,22.980 C24.928,22.980 24.531,23.865 24.531,23.865 C24.531,23.865 24.157,24.761 24.157,24.761 C23.188,27.164 22.442,29.651 21.942,32.023 C21.440,34.394 21.170,36.643 21.053,38.571 C20.934,40.499 20.965,42.106 21.028,43.217 C21.059,43.772 21.098,44.204 21.128,44.492 C21.144,44.633 21.157,44.742 21.165,44.814 C21.175,44.881 21.179,44.915 21.179,44.915 C21.179,44.915 21.181,44.927 21.181,44.927 C21.280,45.647 20.783,46.312 20.070,46.412 C19.357,46.512 18.699,46.010 18.599,45.290 C18.597,45.270 18.594,45.246 18.592,45.226 C18.592,45.226 18.588,45.178 18.580,45.085 C18.574,44.999 18.565,44.870 18.554,44.703 C18.535,44.374 18.515,43.898 18.510,43.298 C18.500,42.097 18.550,40.394 18.771,38.371 C18.991,36.350 19.387,34.009 20.029,31.559 C20.256,30.690 20.518,29.807 20.809,28.921 C20.673,26.118 20.194,22.667 18.904,19.347 C15.953,11.748 11.310,11.119 11.310,11.119 C11.310,11.119 19.230,9.292 22.564,17.344 C23.212,18.910 23.385,20.859 23.290,22.882 C23.688,22.091 24.113,21.316 24.574,20.575 C25.277,19.434 26.030,18.375 26.832,17.400 C28.138,15.806 29.568,14.482 30.960,13.456 C29.495,14.093 27.877,14.602 26.543,14.533 C23.190,14.359 24.168,12.736 24.273,10.676 C24.378,8.616 23.569,6.900 26.922,7.074 C28.473,7.154 30.327,8.051 31.873,8.992 C31.527,9.494 31.309,10.091 31.260,10.736 ZM21.055,16.330 C18.861,11.679 14.036,11.177 14.036,11.177 C14.036,11.177 18.412,12.126 20.494,16.349 C22.665,20.751 22.321,23.783 22.321,23.783 C22.321,23.783 23.045,20.550 21.055,16.330 ZM13.873,28.835 C13.873,28.835 6.030,33.181 6.030,33.181 C6.030,33.181 13.873,37.528 13.873,37.528 C13.873,37.528 13.873,43.235 13.873,43.235 C13.873,43.235 -0.013,35.568 -0.013,35.568 C-0.013,35.568 -0.013,30.747 -0.013,30.747 C-0.013,30.747 13.873,23.097 13.873,23.097 C13.873,23.097 13.873,28.835 13.873,28.835 ZM32.173,13.394 C32.556,13.815 33.037,14.142 33.581,14.337 C33.356,14.805 33.117,15.344 32.895,15.930 C32.169,17.846 31.902,19.523 31.902,19.523 C31.902,19.523 32.812,18.094 33.538,16.179 C33.767,15.574 33.951,14.992 34.094,14.480 C34.308,14.521 34.527,14.545 34.752,14.545 C35.081,14.545 35.398,14.496 35.699,14.410 C35.992,16.352 36.148,18.770 35.524,20.416 C34.324,23.582 33.097,22.141 31.189,21.404 C29.282,20.667 27.415,20.913 28.615,17.747 C29.200,16.202 30.745,14.615 32.173,13.394 ZM42.721,35.568 C42.721,35.568 28.835,43.235 28.835,43.235 C28.835,43.235 28.835,37.528 28.835,37.528 C28.835,37.528 36.679,33.181 36.679,33.181 C36.679,33.181 28.835,28.835 28.835,28.835 C28.835,28.835 28.835,23.097 28.835,23.097 C28.835,23.097 42.721,30.747 42.721,30.747 C42.721,30.747 42.721,35.568 42.721,35.568 ZM34.752,13.882 C33.181,13.882 31.903,12.592 31.903,11.005 C31.903,9.418 33.181,8.127 34.752,8.127 C36.324,8.127 37.602,9.418 37.602,11.005 C37.602,12.592 36.324,13.882 34.752,13.882 ZM33.535,8.882 C33.052,8.882 32.661,9.277 32.661,9.764 C32.661,10.252 33.052,10.647 33.535,10.647 C34.018,10.647 34.410,10.252 34.410,9.764 C34.410,9.277 34.018,8.882 33.535,8.882 ZM34.748,10.725 C34.603,10.725 34.486,10.843 34.486,10.989 C34.486,11.135 34.603,11.254 34.748,11.254 C34.893,11.254 35.011,11.135 35.011,10.989 C35.011,10.843 34.893,10.725 34.748,10.725 ZM39.192,19.420 C37.828,18.307 36.758,16.124 36.046,14.292 C36.535,14.095 36.969,13.790 37.321,13.406 C37.731,13.815 38.232,14.283 38.803,14.748 C40.383,16.037 41.880,16.811 41.880,16.811 C41.880,16.811 40.815,15.496 39.235,14.207 C38.666,13.743 38.108,13.346 37.626,13.027 C37.920,12.603 38.121,12.111 38.208,11.580 C40.133,11.898 42.475,12.496 43.841,13.610 C46.451,15.740 44.715,16.473 43.431,18.077 C42.148,19.682 41.803,21.550 39.192,19.420 Z" id="path-1" class="cls-2" fill-rule="evenodd"/>
</svg>
