<?xml version="1.0" encoding="utf-8"?>
<!-- Generator: Adobe Illustrator 18.1.1, SVG Export Plug-In . SVG Version: 6.00 Build 0)  -->
<svg width="29px" height="29px" version="1.1" id="Layer_1" xmlns="http://www.w3.org/2000/svg" xmlns:xlink="http://www.w3.org/1999/xlink" x="0px" y="0px"
	 viewBox="0 0 28.5 28.5" enable-background="new 0 0 28.5 28.5" xml:space="preserve">
<g>
	<path fill="#232323" d="M14,0c-2,0-4,0-6,2L3,7l1,1v2H0v2l4,4h2l0-4h2l1,1l5-5l-3.2-3.2C11.7,3.6,13.4,2,16,2c1.8,0,2-2,2-2
		S15.9,0,14,0z"/>
	<path fill="none" stroke="#232323" stroke-miterlimit="10" d="M12.9,10.7c-0.9-0.8-2-0.9-2.6-0.3c-0.6,0.6-0.4,1.7,0.3,2.6L23,27.3
		c0.8,0.9,2,0.9,2.8,0.1l1.6-1.4c0.8-0.8,0.8-2.1-0.1-2.8L12.9,10.7z"/>
</g>
</svg>
