<svg xmlns="http://www.w3.org/2000/svg" xmlns:xlink="http://www.w3.org/1999/xlink" preserveAspectRatio="xMidYMid" width="76" height="28" viewBox="0 0 76 28">
  <defs>
    <style>

      .cls-3 {
        fill: #8a8a8a;
      }

      .cls-4 {
        fill: #b8b8b8;
      }
    </style>
  </defs>
  <g id="jetbrains_logo">
    <path d="M72.309,8.157 C71.439,8.157 71.019,8.609 71.019,9.310 C71.019,11.409 76.002,10.833 76.002,15.731 C76.002,18.406 74.549,20.012 72.082,20.012 C70.571,20.012 69.858,19.353 68.755,18.612 C68.755,18.612 68.755,15.607 68.755,15.607 C70.345,16.924 70.987,17.418 72.187,17.418 C73.113,17.418 73.478,16.924 73.478,16.101 C73.478,13.797 68.527,14.661 68.527,9.598 C68.527,7.169 69.517,5.563 72.082,5.563 C73.316,5.563 74.086,5.892 75.483,6.675 C75.483,6.675 75.483,9.392 75.483,9.392 C73.892,8.486 73.250,8.157 72.309,8.157 ZM60.363,10.711 C60.363,10.711 60.363,19.726 60.363,19.726 C60.363,19.726 57.936,19.726 57.936,19.726 C57.936,19.726 57.936,5.689 57.936,5.689 C57.936,5.689 60.135,5.689 60.135,5.689 C60.135,5.689 65.045,14.252 65.045,14.252 C65.045,14.252 65.045,5.689 65.045,5.689 C65.045,5.689 67.472,5.689 67.472,5.689 C67.472,5.689 67.472,19.726 67.472,19.726 C67.472,19.726 65.468,19.726 65.468,19.726 C65.468,19.726 60.363,10.711 60.363,10.711 ZM53.781,5.689 C53.781,5.689 56.207,5.689 56.207,5.689 C56.207,5.689 56.207,19.726 56.207,19.726 C56.207,19.726 53.781,19.726 53.781,19.726 C53.781,19.726 53.781,5.689 53.781,5.689 ZM49.441,16.927 C49.441,16.927 45.140,16.927 45.140,16.927 C45.140,16.927 44.328,19.726 44.328,19.726 C44.328,19.726 41.739,19.726 41.739,19.726 C41.739,19.726 45.854,5.689 45.854,5.689 C45.854,5.689 48.402,5.689 48.402,5.689 C48.402,5.689 52.971,19.726 52.971,19.726 C52.971,19.726 50.350,19.726 50.350,19.726 C50.350,19.726 49.441,16.927 49.441,16.927 ZM47.177,9.024 C47.177,9.024 45.886,14.498 45.886,14.498 C45.886,14.498 48.629,14.498 48.629,14.498 C48.629,14.498 47.177,9.024 47.177,9.024 ZM38.719,19.726 C38.719,19.726 35.124,14.004 35.124,14.004 C35.124,14.004 35.124,19.726 35.124,19.726 C35.124,19.726 32.697,19.726 32.697,19.726 C32.697,19.726 32.697,5.689 32.697,5.689 C32.697,5.689 36.998,5.689 36.998,5.689 C39.270,5.689 40.269,7.624 40.269,9.724 C40.269,11.247 39.652,12.400 38.386,13.140 C38.033,13.293 37.851,13.339 37.588,13.405 C37.588,13.405 41.405,19.726 41.405,19.726 C41.405,19.726 38.719,19.726 38.719,19.726 ZM37.777,9.847 C37.777,8.777 37.225,8.242 36.187,8.242 C36.187,8.242 35.124,8.242 35.124,8.242 C35.124,8.242 35.124,11.452 35.124,11.452 C35.124,11.452 36.252,11.452 36.252,11.452 C37.031,11.452 37.777,11.040 37.777,9.847 ZM27.648,19.726 C27.648,19.726 23.590,19.726 23.590,19.726 C23.590,19.726 23.590,5.689 23.590,5.689 C23.590,5.689 27.397,5.689 27.397,5.689 C27.999,5.689 28.498,5.797 28.914,5.976 C28.914,5.976 26.017,7.904 26.017,7.904 C26.017,7.904 26.017,8.242 26.017,8.242 C26.017,8.242 26.017,10.524 26.017,10.524 C26.017,10.524 26.017,11.247 26.017,11.247 C26.017,11.247 26.813,11.247 26.813,11.247 C27.819,11.247 28.209,10.465 28.209,9.724 C28.209,9.560 28.185,9.391 28.139,9.229 C28.435,8.967 29.419,8.096 30.309,7.294 C30.612,7.888 30.733,8.566 30.733,9.188 C30.733,10.382 30.149,11.412 29.207,11.988 C30.797,12.522 31.577,13.963 31.577,15.609 C31.577,17.215 30.895,19.726 27.648,19.726 ZM27.299,13.840 C27.299,13.840 26.017,13.840 26.017,13.840 C26.017,13.840 26.017,17.133 26.017,17.133 C26.017,17.133 26.910,17.133 26.910,17.133 C28.436,17.133 28.988,16.639 28.988,15.404 C28.988,14.374 28.274,13.840 27.299,13.840 Z" id="path-1" class="cls-3" fill-rule="evenodd"/>
    <path d="M32.042,5.070 C32.043,5.077 32.044,5.084 32.044,5.092 C32.044,5.225 31.937,5.322 31.781,5.465 C31.781,5.465 31.572,5.663 31.572,5.663 C31.012,6.232 29.944,7.206 29.944,7.206 C29.944,7.206 27.808,9.063 27.808,9.063 C27.454,9.423 26.961,9.820 26.349,10.243 C26.349,10.243 26.349,8.087 26.349,8.087 C26.349,8.087 29.204,6.142 29.204,6.142 C29.204,6.142 29.614,5.854 29.614,5.854 C30.730,5.064 32.506,3.943 32.658,4.040 C32.725,4.083 32.036,4.994 32.042,5.070 ZM19.801,14.367 C19.801,14.430 19.800,14.492 19.800,14.557 C19.800,15.557 19.856,16.871 20.692,18.380 C20.773,18.527 20.858,18.711 20.858,18.905 C20.858,18.963 20.850,19.023 20.832,19.083 C20.745,19.371 20.454,19.568 20.014,19.792 C19.433,20.093 18.913,19.925 18.585,19.333 C18.585,19.333 17.857,18.075 17.857,18.075 C17.857,18.075 17.063,16.689 16.882,16.371 C15.965,17.151 15.141,17.730 14.661,17.922 C13.590,18.349 13.045,18.264 12.417,17.960 C11.922,17.734 11.731,17.391 11.515,16.931 C11.386,16.658 11.295,16.129 11.295,15.487 C11.295,15.228 11.293,14.749 11.533,14.254 C11.032,14.580 8.341,16.613 8.213,16.695 C7.968,18.748 7.911,20.573 7.861,22.185 C7.763,25.417 7.697,27.552 6.096,27.985 C4.992,28.282 2.191,25.347 0.136,19.892 C0.040,19.635 -0.005,19.395 -0.005,19.169 C-0.005,17.718 1.877,16.834 4.353,15.672 C4.353,15.672 5.791,14.985 5.979,14.895 C5.977,14.665 6.416,11.095 5.842,7.614 C5.516,5.633 4.894,6.018 4.304,4.867 C3.755,3.798 5.270,2.393 5.755,1.901 C6.910,0.728 8.997,-0.958 8.997,0.727 C8.997,1.178 9.106,-0.260 8.997,2.058 C8.828,5.648 8.224,12.452 8.102,13.945 C9.142,13.348 12.494,11.437 13.596,10.930 C13.596,10.930 13.835,10.832 13.835,10.832 C14.447,10.610 14.981,10.620 15.422,10.859 C15.873,11.104 16.197,11.577 16.359,12.229 C16.382,12.319 16.393,12.420 16.393,12.529 C16.393,13.482 15.578,15.083 14.578,15.831 C14.752,15.848 14.945,15.829 15.165,15.741 C15.341,15.671 15.804,15.300 16.540,14.640 C16.553,14.623 16.574,14.596 16.575,14.596 C16.575,14.596 17.369,13.887 17.362,13.893 C17.362,13.893 17.821,13.473 17.913,13.389 C17.831,12.243 17.787,11.215 17.787,10.311 C17.787,7.517 18.183,5.870 18.979,5.307 C19.233,5.111 19.499,5.031 19.726,5.078 C19.898,5.114 20.037,5.221 20.129,5.385 C20.257,5.618 20.310,6.065 20.310,6.655 C20.310,7.873 20.085,9.705 19.841,11.540 C19.841,11.540 19.803,11.833 19.767,12.112 C20.253,11.792 21.640,10.877 21.640,10.877 C21.640,10.877 23.199,9.846 23.199,9.846 C23.199,9.846 23.199,12.004 23.199,12.004 C23.199,12.004 21.461,13.202 21.461,13.202 C21.461,13.202 19.944,14.266 19.801,14.367 ZM3.659,21.355 C4.140,22.537 4.451,22.993 5.109,23.534 C5.601,24.034 5.771,19.692 6.014,17.565 C3.973,18.741 2.845,19.359 3.659,21.355 ZM14.720,12.828 C14.595,12.700 14.380,12.570 14.009,12.774 C13.059,13.287 13.213,14.251 13.242,14.999 C14.410,14.261 14.970,13.082 14.720,12.828 Z" id="path-2" class="cls-4" fill-rule="evenodd"/>
  </g>
</svg>
