<?xml version="1.0" encoding="utf-8"?>
<!-- Generator: Adobe Illustrator 18.1.1, SVG Export Plug-In . SVG Version: 6.00 Build 0)  -->
<svg width="19px" height="29px" version="1.1" id="Layer_1" xmlns="http://www.w3.org/2000/svg" xmlns:xlink="http://www.w3.org/1999/xlink" x="0px" y="0px"
	 viewBox="0 0 19 28.5" enable-background="new 0 0 19 28.5" xml:space="preserve">
<g>
	<path fill="#232323" d="M4.5,22.5l10-2v2l-9.9,2c-0.1-0.3-0.1-0.6-0.1-1V22.5z M9.5,28.5c2.4,0,4.4-1.7,4.9-4l-9,1.8
		C6.3,27.6,7.8,28.5,9.5,28.5z M9.5,18.5c-1.9,0-3.6-0.6-5-1.5c0,0,0,0,0,0v1.5v2l10-2V17C13.1,17.9,11.4,18.5,9.5,18.5z"/>
	<circle fill="none" stroke="#232323" stroke-miterlimit="10" cx="9.5" cy="9.5" r="9"/>
	<circle fill="none" stroke="#232323" stroke-miterlimit="10" cx="9.5" cy="9.5" r="7"/>
	<polygon fill="#232323" points="10.5,10.5 9.5,13.5 8.5,10.5 6.5,10.5 8.5,16.5 10.5,16.5 12.5,10.5 	"/>
</g>
</svg>
