<?xml version="1.0" encoding="utf-8" standalone="no"?>
<svg width="219px" height="45px" version="1.1" xmlns="http://www.w3.org/2000/svg" xmlns:xlink="http://www.w3.org/1999/xlink" x="0px" y="0px"
	 viewBox="0 0 181.5 36.6" enable-background="new 0 0 181.5 36.6" xml:space="preserve">
<path fill="#FFFFFF" d="M61.6,13.5c1.2-0.2,2.9-0.4,4.5-0.4c2.5,0,4.1,0.5,5.3,1.5c0.9,0.8,1.4,2,1.4,3.4c0,2.4-1.5,4-3.4,4.6v0.1
	c1.4,0.5,2.2,1.8,2.7,3.7c0.6,2.5,1,4.3,1.4,5h-2.4c-0.3-0.5-0.7-2.1-1.2-4.3c-0.5-2.5-1.5-3.4-3.7-3.5h-2.2v7.8h-2.3V13.5z
	 M63.9,21.7h2.4c2.5,0,4.1-1.4,4.1-3.4c0-2.3-1.7-3.4-4.2-3.4c-1.1,0-1.9,0.1-2.3,0.2V21.7z"/>
<path fill="#FFFFFF" d="M76.8,25.2c0.1,3.2,2.1,4.5,4.4,4.5c1.7,0,2.7-0.3,3.6-0.6l0.4,1.7c-0.8,0.4-2.3,0.8-4.4,0.8
	c-4,0-6.4-2.7-6.4-6.6c0-3.9,2.3-7,6.1-7c4.2,0,5.3,3.7,5.3,6.1c0,0.5,0,0.9-0.1,1.1L76.8,25.2z M83.7,23.5c0-1.5-0.6-3.8-3.3-3.8
	c-2.4,0-3.4,2.2-3.6,3.8H83.7z"/>
<path fill="#FFFFFF" d="M88.9,27.1c1.1,0.6,2.8,1.1,4.5,1.1c1.9,0,2.9-0.8,2.9-2c0-1.1-0.9-1.8-3-2.5c-3-1.1-5-2.7-5-5.4
	c0-3.1,2.6-5.4,6.9-5.4c2.1,0,3.5,0.4,4.6,0.9l-0.9,3.3c-0.7-0.4-2-0.9-3.8-0.9c-1.8,0-2.6,0.8-2.6,1.7c0,1.2,1,1.7,3.4,2.6
	c3.2,1.2,4.7,2.8,4.7,5.4c0,3-2.3,5.6-7.3,5.6c-2.1,0-4.1-0.6-5.1-1.1L88.9,27.1z"/>
<path fill="#FFFFFF" d="M103,12.2h4.1v7.5h0.1c0.4-0.6,1-1,1.6-1.4c0.6-0.3,1.4-0.5,2.1-0.5c2.6,0,4.6,1.8,4.6,5.8v7.7h-4.1v-7.2
	c0-1.7-0.6-2.9-2.1-2.9c-1.1,0-1.7,0.7-2,1.5c-0.1,0.2-0.1,0.6-0.1,0.9v7.8H103V12.2z"/>
<path fill="#FFFFFF" d="M129.7,28.1c0,1.2,0.1,2.4,0.2,3.2h-3.7L126,30h-0.1c-0.9,1-2.2,1.6-3.8,1.6c-2.7,0-4.2-1.9-4.2-4
	c0-3.4,3.1-5,7.7-5v-0.2c0-0.7-0.4-1.7-2.4-1.7c-1.3,0-2.8,0.5-3.6,1l-0.8-2.6c0.9-0.5,2.7-1.2,5.1-1.2c4.4,0,5.7,2.6,5.7,5.7V28.1z
	 M125.7,25.1c-2.2,0-3.8,0.5-3.8,2.1c0,1,0.7,1.6,1.6,1.6c1,0,1.9-0.7,2.1-1.5c0.1-0.2,0.1-0.5,0.1-0.7V25.1z"/>
<path fill="#FFFFFF" d="M133,22.5c0-1.9,0-3.2-0.1-4.3h3.5l0.2,2.4h0.1c0.7-1.9,2.3-2.7,3.5-2.7c0.4,0,0.6,0,0.9,0.1v3.8
	c-0.4-0.1-0.7-0.1-1.1-0.1c-1.5,0-2.5,0.8-2.8,2.1c-0.1,0.3-0.1,0.6-0.1,0.9v6.6h-4.1L133,22.5z"/>
<path fill="#FFFFFF" d="M143.1,22.6c0-1.7-0.1-3.2-0.1-4.4h3.5l0.2,1.8h0.1c1-1.4,2.5-2.1,4.4-2.1c2.9,0,5.5,2.5,5.5,6.7
	c0,4.8-3,7-6,7c-1.6,0-2.8-0.6-3.4-1.5h-0.1v6.5h-4.1V22.6z M147.2,25.7c0,0.3,0,0.6,0.1,0.9c0.3,1.1,1.2,1.9,2.4,1.9
	c1.8,0,2.8-1.5,2.8-3.7c0-2.1-0.9-3.7-2.8-3.7c-1.2,0-2.2,0.9-2.4,2.1c-0.1,0.2-0.1,0.5-0.1,0.7V25.7z"/>
<path fill="#FFFFFF" d="M162.4,26c0.1,1.7,1.8,2.5,3.7,2.5c1.4,0,2.5-0.2,3.6-0.6l0.5,2.8c-1.3,0.6-3,0.8-4.8,0.8
	c-4.5,0-7-2.6-7-6.7c0-3.3,2.1-7,6.6-7c4.2,0,5.9,3.3,5.9,6.6c0,0.7-0.1,1.3-0.1,1.6L162.4,26z M167.2,23.2c0-1-0.4-2.7-2.3-2.7
	c-1.7,0-2.4,1.6-2.6,2.7H167.2z"/>
<path fill="#FFFFFF" d="M173.5,22.5c0-1.9,0-3.2-0.1-4.3h3.5l0.2,2.4h0.1c0.7-1.9,2.3-2.7,3.5-2.7c0.4,0,0.6,0,0.9,0.1v3.8
	c-0.3-0.1-0.7-0.1-1.1-0.1c-1.5,0-2.5,0.8-2.8,2.1c-0.1,0.3-0.1,0.6-0.1,0.9v6.6h-4.1L173.5,22.5z"/>
<path fill="#FFFFFF" d="M0,12v20.4h7.7c0-0.3,0-20,0-20c0-1.3,0.8-5,4.4-5c2.2,0,3.8,1.7,3.8,4.1c0,2.2-1.7,3.4-3.2,4.3l-0.6,0.3
	c-1.3,0.9-2,2.1-2,3.6c0,1.3,0.5,2.3,0.6,2.5l0.5,0.9l5.3,7.5c0,0,0.1,0.1,0.1,0.1c0,0,0.7,1,0.7,1c0.4,0.5,1,1,1.8,1.2
	c1,0.3,2.2,0,3-0.5c0.8-0.6,1.3-1.3,1.5-2.2l0.1-0.6c0-0.7-0.3-2-1.1-3c-0.4-0.6-4-5.5-4.3-6.1l-0.1-0.2l0.2-0.1
	c3.1-2.2,5-5.7,5-9.4v-0.3c0-2.6-0.9-5.1-2.5-6.8C18.7,1.2,15.6,0,12.1,0C5.3,0,0,5.3,0,12"/>
<path fill="#F68B1F" d="M40.6,0.6h-6l-1.8,9.2l-3.8,0l1.8-9.2h-6L24,4.7c0.9,1.7,1.3,3.7,1.3,5.7v0.3c0,3.8-1.7,7.4-4.5,9.9
	c0.6,0.8,1.4,1.9,2,2.7c0,0,1.4,2,1.4,2c0.6,0.8,1,1.7,1.2,2.5l0.7-3.8l3.8,0l-1.7,8.4h6l1.7-8.4l4,0l1-5l-4,0l0.9-4.3l4,0l1-5l-4,0
	L40.6,0.6z M30.9,19.1l-3.8,0l0.9-4.3l3.8,0L30.9,19.1z"/>
</svg>
