<svg xmlns="http://www.w3.org/2000/svg" xmlns:xlink="http://www.w3.org/1999/xlink" preserveAspectRatio="xMidYMid" width="19" height="20" viewBox="0 0 19 20">
  <defs>
    <style>

      .cls-2 {
        fill: #232323;
      }
    </style>
  </defs>
  <path d="M18.172,7.281 C18.172,7.281 16.169,12.004 16.169,12.004 C16.169,12.004 10.625,12.004 10.625,12.004 C10.336,12.004 10.104,11.770 10.104,11.482 C10.104,11.194 10.336,10.963 10.625,10.963 C10.625,10.963 15.481,10.963 15.481,10.963 C15.481,10.963 17.211,6.871 17.211,6.871 C17.296,6.672 17.490,6.554 17.692,6.554 C17.761,6.554 17.831,6.568 17.897,6.597 C18.095,6.680 18.214,6.873 18.214,7.076 C18.214,7.145 18.199,7.216 18.172,7.281 ZM7.614,9.507 C7.614,9.507 5.214,7.037 5.214,7.037 C4.268,7.745 3.214,10.075 3.037,12.053 C3.037,12.053 7.531,12.053 7.531,12.053 C8.183,12.053 8.711,12.575 8.711,13.227 C8.711,13.227 8.711,18.373 8.711,18.373 C8.711,18.943 8.251,19.408 7.681,19.412 C7.681,19.412 7.647,19.412 7.647,19.412 C7.044,19.412 6.554,18.913 6.554,18.311 C6.554,18.311 6.554,14.152 6.554,14.152 C6.554,14.152 1.669,14.152 1.669,14.152 C1.527,14.152 1.435,14.131 1.299,14.100 C0.525,13.914 -0.005,13.223 -0.005,12.460 C-0.005,10.970 1.395,6.263 3.717,4.674 C4.008,4.477 4.341,4.354 4.671,4.354 C5.206,4.354 5.733,4.635 6.060,5.113 C6.118,5.199 8.603,8.052 8.669,8.132 C8.669,8.132 11.199,8.132 11.199,8.132 C12.129,8.132 12.859,8.886 12.859,9.818 C12.859,9.818 8.268,9.818 8.268,9.818 C8.014,9.818 7.773,9.703 7.614,9.507 ZM6.938,3.783 C6.021,3.712 5.370,2.461 5.443,1.542 C5.515,0.624 6.284,-0.057 7.204,0.012 C8.122,0.084 8.772,0.888 8.699,1.806 C8.627,2.721 7.859,3.855 6.938,3.783 Z" id="path-1" class="cls-2" fill-rule="evenodd"/>
</svg>
