<svg xmlns="http://www.w3.org/2000/svg" xmlns:xlink="http://www.w3.org/1999/xlink" preserveAspectRatio="xMidYMid" width="15" height="7" viewBox="0 0 15 7">
  <defs>
    <style>

      .cls-2 {
        fill: #a09483;
      }
    </style>
  </defs>
  <path d="M13.765,1.608 C13.765,1.608 7.895,6.318 7.895,6.318 C7.888,6.323 7.887,6.330 7.880,6.336 C7.651,6.519 7.351,6.610 7.051,6.609 C6.752,6.610 6.452,6.519 6.223,6.336 C6.216,6.330 6.214,6.323 6.208,6.318 C6.208,6.318 0.338,1.608 0.338,1.608 C-0.118,1.242 -0.118,0.650 0.338,0.284 C0.793,-0.081 1.532,-0.081 1.987,0.284 C1.987,0.284 7.051,4.347 7.051,4.347 C7.051,4.347 12.115,0.284 12.115,0.284 C12.571,-0.081 13.310,-0.081 13.765,0.284 C14.221,0.650 14.221,1.242 13.765,1.608 Z" id="path-1" class="cls-2" fill-rule="evenodd"/>
</svg>
