<?xml version="1.0" encoding="UTF-8" standalone="no"?>
<svg xmlns="http://www.w3.org/2000/svg" xmlns:xlink="http://www.w3.org/1999/xlink" preserveAspectRatio="xMidYMid" width="64" height="64" viewBox="0 0 64 64">
  <defs>
    <style>
      .cls-2 {
        fill: #ffffff;
      }
    </style>
  </defs>
  <path d="M32.018,64.000 C14.344,64.000 0.016,49.672 0.016,31.997 C0.016,14.323 14.344,-0.005 32.018,-0.005 C49.693,-0.005 64.021,14.323 64.021,31.997 C64.021,49.672 49.693,64.000 32.018,64.000 ZM49.752,30.697 C47.850,29.590 25.570,16.639 24.455,15.997 C23.064,15.196 21.656,16.215 21.656,17.585 C21.656,18.641 21.656,45.513 21.656,47.044 C21.656,48.553 23.212,49.286 24.398,48.622 C26.017,47.718 48.383,34.701 49.752,33.889 C50.980,33.160 51.001,31.425 49.752,30.697 Z" id="path-1" class="cls-2" fill-rule="evenodd"/>
</svg>
