<svg xmlns="http://www.w3.org/2000/svg" xmlns:xlink="http://www.w3.org/1999/xlink" preserveAspectRatio="xMidYMid" width="38" height="41" viewBox="0 0 38 41">
  <defs>
    <style>

      .cls-2 {
        fill: #232323;
      }
    </style>
  </defs>
  <path d="M28.657,0.042 C32.227,-0.143 35.023,0.583 35.023,0.583 C35.527,0.714 36.090,1.218 36.274,1.702 C36.274,1.702 37.294,4.387 37.481,7.932 C35.630,7.689 33.639,6.779 31.926,5.248 C30.213,3.716 29.094,1.844 28.657,0.042 ZM31.590,5.618 C33.405,7.240 35.526,8.192 37.504,8.429 C37.602,11.775 36.915,15.782 33.981,19.018 C32.660,20.474 30.796,21.803 28.855,22.943 C29.009,23.891 29.040,24.983 28.881,26.243 C27.725,35.428 20.501,36.758 20.501,36.758 C19.989,36.852 19.781,36.561 20.039,36.112 C20.039,36.112 21.977,32.739 20.802,28.344 C20.660,27.812 20.503,27.335 20.340,26.902 C20.059,27.004 19.902,27.058 19.902,27.058 C19.410,27.226 18.690,27.081 18.302,26.735 C18.302,26.735 18.084,26.540 18.084,26.540 C18.084,26.540 12.046,21.141 12.046,21.141 C12.046,21.141 11.829,20.947 11.829,20.947 C11.441,20.601 11.220,19.905 11.338,19.401 C11.338,19.401 11.375,19.240 11.449,18.952 C10.997,18.837 10.504,18.731 9.955,18.647 C5.430,17.945 2.255,20.212 2.255,20.212 C1.832,20.514 1.519,20.339 1.560,19.823 C1.560,19.823 2.136,12.551 11.215,10.448 C12.461,10.160 13.558,10.077 14.523,10.130 C15.462,8.094 16.598,6.114 17.919,4.658 C20.853,1.422 24.795,0.325 28.156,0.072 C28.601,2.000 29.776,3.995 31.590,5.618 ZM22.777,7.381 C20.799,9.563 20.977,12.935 23.174,14.899 C25.370,16.863 28.767,16.686 30.745,14.505 C32.723,12.324 32.545,8.951 30.348,6.988 C28.151,5.024 24.755,5.200 22.777,7.381 ZM26.761,15.271 C24.358,15.271 22.403,13.329 22.403,10.943 C22.403,8.557 24.358,6.616 26.761,6.616 C29.164,6.616 31.119,8.557 31.119,10.943 C31.119,13.329 29.164,15.271 26.761,15.271 ZM24.899,7.750 C24.161,7.750 23.563,8.345 23.563,9.078 C23.563,9.811 24.161,10.406 24.899,10.406 C25.638,10.406 26.236,9.811 26.236,9.078 C26.236,8.345 25.638,7.750 24.899,7.750 ZM26.754,10.522 C26.533,10.522 26.353,10.700 26.353,10.920 C26.353,11.140 26.533,11.318 26.754,11.318 C26.976,11.318 27.156,11.140 27.156,10.920 C27.156,10.700 26.976,10.522 26.754,10.522 ZM16.011,28.977 C15.782,29.270 15.539,29.560 15.280,29.845 C12.266,33.169 6.697,33.069 6.697,33.069 C6.697,33.069 6.015,27.580 9.029,24.256 C9.288,23.971 9.553,23.701 9.822,23.444 C8.542,26.027 9.638,29.826 9.638,29.826 C9.638,29.826 13.558,30.511 16.011,28.977 ZM8.748,23.172 C7.876,23.755 7.026,24.482 6.245,25.342 C2.964,28.960 4.424,35.576 4.424,35.576 C4.424,35.576 11.202,36.326 14.483,32.708 C15.264,31.847 15.903,30.932 16.396,30.009 C15.609,31.849 14.364,33.790 12.718,35.605 C8.287,40.491 0.100,40.344 0.100,40.344 C0.100,40.344 -0.903,32.275 3.528,27.388 C5.174,25.573 6.988,24.140 8.748,23.172 Z" id="path-1" class="cls-2" fill-rule="evenodd"/>
</svg>
