<svg xmlns="http://www.w3.org/2000/svg" xmlns:xlink="http://www.w3.org/1999/xlink" preserveAspectRatio="xMidYMid" width="42" height="45" viewBox="0 0 42 45">
  <defs>
    <style>

      .cls-2 {
        fill: #232323;
      }
    </style>
  </defs>
  <path d="M34.330,8.380 C34.330,8.380 33.404,7.618 33.404,7.618 C33.404,7.618 33.525,7.471 33.525,7.471 C33.525,7.471 34.451,8.232 34.451,8.232 C34.451,8.232 34.330,8.380 34.330,8.380 ZM32.560,6.629 C32.560,6.629 31.779,5.718 31.779,5.718 C31.779,5.718 31.443,6.006 31.443,6.006 C31.443,6.006 32.384,6.779 32.384,6.779 C32.384,6.779 32.560,6.629 32.560,6.629 ZM31.140,5.158 C31.140,5.158 30.531,4.126 30.531,4.126 C30.531,4.126 29.730,4.598 29.730,4.598 C29.730,4.598 30.716,5.409 30.716,5.409 C30.716,5.409 31.140,5.158 31.140,5.158 ZM36.631,9.706 C36.631,9.706 35.586,9.117 35.586,9.117 C35.586,9.117 35.472,9.318 35.472,9.318 C35.472,9.318 36.413,10.091 36.413,10.091 C36.413,10.091 36.631,9.706 36.631,9.706 ZM40.192,8.839 C40.192,8.839 39.324,9.895 39.324,9.895 C39.324,9.895 30.952,3.013 30.952,3.013 C30.952,3.013 31.821,1.958 31.821,1.958 C33.722,-0.353 37.137,-0.685 39.449,1.215 C41.761,3.115 42.094,6.529 40.192,8.839 ZM36.594,2.104 C36.594,1.432 36.049,0.887 35.377,0.887 C34.704,0.887 34.159,1.432 34.159,2.104 C34.159,2.776 34.704,3.320 35.377,3.320 C36.049,3.320 36.594,2.776 36.594,2.104 ZM37.431,3.792 C37.431,3.590 37.267,3.427 37.066,3.427 C36.864,3.427 36.701,3.590 36.701,3.792 C36.701,3.994 36.864,4.157 37.066,4.157 C37.267,4.157 37.431,3.994 37.431,3.792 ZM29.681,4.558 C29.681,4.558 29.730,4.598 29.730,4.598 C29.730,4.598 30.531,4.126 30.531,4.126 C30.531,4.126 31.140,5.158 31.140,5.158 C31.140,5.158 30.716,5.409 30.716,5.409 C30.716,5.409 31.443,6.006 31.443,6.006 C31.443,6.006 31.779,5.718 31.779,5.718 C31.779,5.718 32.560,6.629 32.560,6.629 C32.560,6.629 32.384,6.779 32.384,6.779 C32.384,6.779 33.404,7.618 33.404,7.618 C33.404,7.618 33.525,7.471 33.525,7.471 C33.525,7.471 34.451,8.232 34.451,8.232 C34.451,8.232 34.330,8.380 34.330,8.380 C34.330,8.380 35.472,9.318 35.472,9.318 C35.472,9.318 35.586,9.117 35.586,9.117 C35.586,9.117 36.631,9.706 36.631,9.706 C36.631,9.706 36.413,10.091 36.413,10.091 C36.413,10.091 37.140,10.689 37.140,10.689 C37.140,10.689 37.304,10.224 37.304,10.224 C37.304,10.224 38.435,10.623 38.435,10.623 C38.435,10.623 38.217,11.239 38.217,11.239 C38.217,11.239 38.810,10.520 38.810,10.520 C38.810,10.520 30.438,3.638 30.438,3.638 C30.438,3.638 29.681,4.558 29.681,4.558 ZM36.933,11.274 C36.933,11.274 37.919,12.085 37.919,12.085 C37.919,12.085 35.707,18.351 35.707,18.351 C35.707,18.351 35.571,21.505 35.571,21.505 C35.571,21.505 30.132,40.522 30.132,40.522 C30.132,40.522 25.959,44.161 25.959,44.161 C25.959,44.161 23.728,38.837 23.728,38.837 C23.728,38.837 18.518,40.569 18.518,40.569 C18.518,40.569 17.171,34.610 17.171,34.610 C17.171,34.610 11.251,35.484 11.251,35.484 C11.251,35.484 11.211,29.613 11.211,29.613 C11.211,29.613 4.977,29.440 4.977,29.440 C4.977,29.440 4.977,29.440 4.977,29.440 C4.977,29.440 4.977,29.440 4.977,29.440 C4.977,29.440 4.977,29.440 4.977,29.440 C4.977,29.440 4.977,29.440 4.977,29.440 C4.977,29.440 5.738,24.009 5.738,24.009 C5.738,24.009 0.015,22.835 0.015,22.835 C0.015,22.835 0.015,22.835 0.015,22.835 C0.015,22.835 2.782,18.040 2.782,18.040 C2.782,18.040 21.370,8.389 21.370,8.389 C21.370,8.389 23.918,8.029 23.918,8.029 C23.918,8.029 29.195,4.914 29.195,4.914 C29.195,4.914 30.181,5.724 30.181,5.724 C30.181,5.724 25.187,8.673 25.187,8.673 C25.187,8.673 24.487,10.816 24.487,10.816 C24.487,10.816 26.229,10.467 26.229,10.467 C26.229,10.467 30.993,6.392 30.993,6.392 C30.993,6.392 31.933,7.165 31.933,7.165 C31.933,7.165 27.306,11.124 27.306,11.124 C27.306,11.124 27.016,13.170 27.016,13.170 C27.016,13.170 29.127,12.815 29.127,12.815 C29.127,12.815 33.033,8.069 33.033,8.069 C33.033,8.069 33.959,8.830 33.959,8.830 C33.959,8.830 30.059,13.570 30.059,13.570 C30.059,13.570 30.136,15.850 30.136,15.850 C30.136,15.850 32.188,15.136 32.188,15.136 C32.188,15.136 35.181,9.834 35.181,9.834 C35.181,9.834 36.121,10.607 36.121,10.607 C36.121,10.607 33.232,15.725 33.232,15.725 C33.232,15.725 33.612,17.519 33.612,17.519 C33.612,17.519 35.003,16.741 35.003,16.741 C35.003,16.741 36.933,11.274 36.933,11.274 ZM12.445,32.117 C12.445,32.117 26.414,15.141 26.414,15.141 C26.414,15.141 12.423,28.875 12.423,28.875 C12.423,28.875 12.445,32.117 12.445,32.117 ZM6.629,26.425 C6.629,26.425 22.057,13.225 22.057,13.225 C22.057,13.225 7.049,23.420 7.049,23.420 C7.049,23.420 6.629,26.425 6.629,26.425 ZM3.439,18.727 C3.439,18.727 2.541,20.284 2.541,20.284 C2.541,20.284 17.882,11.228 17.882,11.228 C17.882,11.228 3.439,18.727 3.439,18.727 ZM37.304,10.224 C37.304,10.224 37.140,10.689 37.140,10.689 C37.140,10.689 38.126,11.499 38.126,11.499 C38.126,11.499 38.217,11.239 38.217,11.239 C38.217,11.239 38.435,10.623 38.435,10.623 C38.435,10.623 37.304,10.224 37.304,10.224 Z" id="path-1" class="cls-2" fill-rule="evenodd"/>
</svg>
